# xmcd
#
# Track frame offsets:
#	150
#	19946
#	42701
#	65599
#	95663
#	117481
#	142026
#	166795
#	190733
#	213511
#	232318
#	260731
#	284863
#	305731
#	329716
#
# Disc length: 4597 seconds
#
# Revision: 8
# Processed by: cddbd v1.4PL0 Copyright (c) Steve Scherf et al.
# Submitted via: MusicWizard 6.0.2
#
DISCID=0111f30f
DTITLE=Kenny G - Breathless
DYEAR=1992
DGENRE=Instrumental
TTITLE0=The Joy Of Life
TTITLE1=Forever In Love
TTITLE2=In The Rain
TTITLE3=Sentimental
TTITLE4=By The Time  This Nights Is Over
TTITLE5=End Of The Night
TTITLE6=Alone
TTITLE7=Mornig
TTITLE8=Even If My Heart Would Break
TTITLE9=G-Bop
TTITLE10=Sister Rose
TTITLE11=A Year Ago
TTITLE12=Homeland
TTITLE13=Natural Ride
TTITLE14=The Wedding Song
EXTD=
EXTT0=
EXTT1=
EXTT2=
EXTT3=
EXTT4=
EXTT5=
EXTT6=
EXTT7=
EXTT8=
EXTT9=
EXTT10=
EXTT11=
EXTT12=
EXTT13=
EXTT14=
PLAYORDER=
